<?xml version="1.0" encoding="UTF-8" standalone="no"?>
<!-- License: PD. Made by Mary Akveo: https://maryakveo.com/ -->

<svg
   fill="#000000"
   width="800px"
   height="800px"
   viewBox="0 0 24 24"
   id="bring-front-2"
   data-name="Flat Color"
   class="icon flat-color"
   version="1.1"
   sodipodi:docname="send_back.svg"
   inkscape:version="1.4.2 (f4327f4, 2025-05-13)"
   xmlns:inkscape="http://www.inkscape.org/namespaces/inkscape"
   xmlns:sodipodi="http://sodipodi.sourceforge.net/DTD/sodipodi-0.dtd"
   xmlns="http://www.w3.org/2000/svg"
   xmlns:svg="http://www.w3.org/2000/svg">
  <defs
     id="defs1" />
  <sodipodi:namedview
     id="namedview1"
     pagecolor="#505050"
     bordercolor="#eeeeee"
     borderopacity="1"
     inkscape:showpageshadow="0"
     inkscape:pageopacity="0"
     inkscape:pagecheckerboard="0"
     inkscape:deskcolor="#505050"
     inkscape:zoom="1.06375"
     inkscape:cx="400"
     inkscape:cy="400"
     inkscape:window-width="1920"
     inkscape:window-height="1111"
     inkscape:window-x="-9"
     inkscape:window-y="-9"
     inkscape:window-maximized="1"
     inkscape:current-layer="bring-front-2" />
  <rect
     id="primary"
     x="6"
     y="6"
     width="12"
     height="12"
     rx="2"
     style="fill: rgb(0, 0, 0);" />
  <path
     id="secondary"
     d="M14,12a2,2,0,0,1-2-2V4a2,2,0,0,1,2-2h6a2,2,0,0,1,2,2v6a2,2,0,0,1-2,2Zm-2,8V14a2,2,0,0,0-2-2H4a2,2,0,0,0-2,2v6a2,2,0,0,0,2,2h6A2,2,0,0,0,12,20Z"
     style="fill: rgb(44, 169, 188);" />
</svg>
